PathFileType	4	(X/Y/Z)	C:\Users\Basilio\Documents\Thesis Gigler\squatting_fais\c3dfiles\076\SLS_front_pre4\markers_experimental.trc
DataRate	CameraRate	NumFrames	NumMarkers	Units	OrigDataRate	OrigDataStartFrame	OrigNumFrames
200.000000	200.000000	4	61	mm	200.000000	1013	1621
Frame#	Time	FHD			LBHD			RBHD			C7			T10			CLAV			LSHO			LUUPA			LMUPA			LDUPA			LLEP			LMEP			LRAD			LUL			LRFIN			RSHO			RUPA1			RMUPA			RDUPA			RLEP			RMEP			RRAD			RUL			RUFIN			RASI			USACR			LSACR			RSACR			LTHI1			LTHI2			LTHI3			LTHI4			LLFC			LMFC			LTIB1			LTIB2			LTIB3			LTIB4			LLMAL			LMMAL			LHEE			LMT1			LMT2			LMT5			RTHI			RTHI2			RTHI3			RTHI4			RLFC			RMFC			RTIB1			RTIB2			RTIB3			RTIB4			RLMAL			RMMAL			RHEE			RMT1			RMT2			RMT5			LASI			
		X1	Y1	Z1	X2	Y2	Z2	X3	Y3	Z3	X4	Y4	Z4	X5	Y5	Z5	X6	Y6	Z6	X7	Y7	Z7	X8	Y8	Z8	X9	Y9	Z9	X10	Y10	Z10	X11	Y11	Z11	X12	Y12	Z12	X13	Y13	Z13	X14	Y14	Z14	X15	Y15	Z15	X16	Y16	Z16	X17	Y17	Z17	X18	Y18	Z18	X19	Y19	Z19	X20	Y20	Z20	X21	Y21	Z21	X22	Y22	Z22	X23	Y23	Z23	X24	Y24	Z24	X25	Y25	Z25	X26	Y26	Z26	X27	Y27	Z27	X28	Y28	Z28	X29	Y29	Z29	X30	Y30	Z30	X31	Y31	Z31	X32	Y32	Z32	X33	Y33	Z33	X34	Y34	Z34	X35	Y35	Z35	X36	Y36	Z36	X37	Y37	Z37	X38	Y38	Z38	X39	Y39	Z39	X40	Y40	Z40	X41	Y41	Z41	X42	Y42	Z42	X43	Y43	Z43	X44	Y44	Z44	X45	Y45	Z45	X46	Y46	Z46	X47	Y47	Z47	X48	Y48	Z48	X49	Y49	Z49	X50	Y50	Z50	X51	Y51	Z51	X52	Y52	Z52	X53	Y53	Z53	X54	Y54	Z54	X55	Y55	Z55	X56	Y56	Z56	X57	Y57	Z57	X58	Y58	Z58	X59	Y59	Z59	X60	Y60	Z60	X61	Y61	Z61	

1014	5.065	-245.2246093750001	1386.762329101563	-1024.94580078125	-379.8623962402344	1308.574951171875	-1122.8291015625	-366.9893798828126	1312.869750976563	-971.0384521484377	-418.9064331054689	1194.328979492188	-1038.630249023438	-501.8766174316407	896.289001464844	-1030.25927734375	-295.6189270019532	1112.12939453125	-1049.290283203125	-351.9649963378907	1146.41259765625	-1205.0380859375	-210.5236206054688	1111.332275390625	-1287.17041015625	-176.4421081542969	1129.134033203125	-1254.67431640625	-144.4996337890625	1110.545654296875	-1303.089233398438	-93.63711547851564	1095.952880859375	-1317.227905273438	-80.31372833251955	1033.38818359375	-1269.178344726563	153.5787200927735	1137.63134765625	-1274.587158203125	148.3480987548828	1141.02880859375	-1339.361694335938	232.6813354492188	1162.561889648438	-1276.064208984375	-328.3597717285157	1144.390380859375	-892.8047485351565	-190.0743713378907	1098.346801757813	-806.3416137695315	-162.5912170410157	1131.853515625	-828.8960571289065	-119.9808349609375	1096.196899414063	-803.0255126953127	-53.33245849609376	1104.118286132813	-808.271667480469	-47.36772918701173	1055.240478515625	-866.5705566406252	187.9953765869141	1136.414428710938	-861.1086425781252	179.7740631103516	1132.973999023438	-796.197937011719	261.9179382324219	1158.620727539063	-849.364440917969	-361.4566345214844	721.0539550781251	-929.7742309570315	-530.3365478515626	782.3886718750002	-1026.122924804688	-539.6741943359376	754.3392944335939	-1056.190063476563	-539.5322265625001	749.6977539062501	-999.6181640625002	-367.8309631347657	589.7456054687501	-1215.489013671875	-288.6560363769532	561.6123046875001	-1214.203857421875	-257.0452270507813	595.8286132812501	-1195.162109375	-268.0959167480469	504.3662719726564	-1205.204833984375	-157.6961669921875	396.7657470703126	-1172.247192382813	-145.1173400878907	414.0098266601564	-1056.888793945313	-183.6065673828125	280.5414123535157	-1066.106689453125	-228.2261047363282	225.2271575927735	-1119.809692382813	-203.300033569336	227.2607879638672	-1080.054565429688	-262.8233642578126	186.5027313232422	-1037.442626953125	-374.4570922851563	104.5762252807617	-1076.766723632813	-346.5655822753907	122.511703491211	-995.5659790039065	-440.629608154297	96.89138793945315	-1025.340209960938	-239.2266082763672	51.73784637451173	-1004.43798828125	-233.5303039550782	48.18709564208986	-1043.331787109375	-257.8990478515626	42.59530258178712	-1093.163208007813	-274.9744262695313	543.0364990234376	-867.2825317382815	-209.0018768310547	553.0215454101564	-874.236267089844	-197.703109741211	585.1080322265626	-883.7666625976565	-152.2366485595703	495.8968811035157	-896.0112915039065	-101.9815139770508	469.684783935547	-904.034851074219	-89.36151123046876	493.125701904297	-1018.797058105469	36.10875701904298	443.4261169433595	-927.8477783203127	74.38794708251955	343.4137878417969	-904.9924926757815	97.7300720214844	382.6449279785157	-916.069519042969	143.801742553711	374.4924316406251	-950.2849121093752	242.4197235107422	251.143051147461	-924.276550292969	236.0815429687501	281.1759643554688	-1003.882141113281	244.1277008056641	189.8586883544922	-967.4636230468752	347.5151977539063	367.6757202148438	-992.580017089844	340.3221740722657	377.2281494140626	-946.0557250976565	344.7101440429688	345.9208374023438	-892.302185058594	-370.7947387695313	721.5247192382814	-1142.432006835938	
1015	5.07	-245.5646667480469	1387.79736328125	-1024.961181640625	-380.4357299804688	1309.63232421875	-1122.73828125	-367.2822265625001	1313.828857421875	-971.0825805664065	-419.1354980468751	1195.175659179688	-1038.639404296875	-501.7844238281251	897.1678466796877	-1030.186889648438	-295.9012756347657	1113.2333984375	-1049.22509765625	-352.7506408691407	1147.47021484375	-1205.140991210938	-210.4649963378907	1112.345336914063	-1287.177978515625	-176.7847595214844	1130.176635742188	-1254.668701171875	-144.9762878417969	1111.76611328125	-1303.304809570313	-93.88555145263673	1097.019897460938	-1317.217163085938	-80.47183227539064	1034.511474609375	-1269.1513671875	153.2872161865235	1138.593383789063	-1274.652587890625	147.8302154541016	1142.178100585938	-1339.3779296875	232.4744262695313	1163.643432617188	-1276.332397460938	-328.5170898437501	1145.30712890625	-892.7066650390627	-190.2178192138672	1099.434936523438	-806.2125244140627	-162.863510131836	1132.84375	-828.8425903320315	-120.2418594360352	1097.130493164063	-803.032165527344	-53.58509445190431	1105.163940429688	-808.2320556640627	-47.50566101074219	1056.353515625	-866.4162597656252	187.484115600586	1137.131225585938	-860.805847167969	179.5757446289063	1134.242919921875	-796.1425781250002	261.4456481933594	1159.907836914063	-849.0531005859377	-361.4678955078126	721.7546386718751	-929.598083496094	-530.3429565429689	783.2137451171877	-1026.01416015625	-539.5584716796876	755.2720947265626	-1056.095092773438	-539.4047241210939	750.5471801757814	-999.5313720703127	-367.9990844726563	590.4808959960939	-1215.485717773438	-288.7137451171876	562.2813110351564	-1214.135131835938	-257.0135803222657	596.3104858398439	-1195.074829101563	-268.3097229003907	504.869110107422	-1205.0908203125	-158.0538177490235	397.1400146484376	-1172.123779296875	-145.0731201171875	414.5057067871095	-1056.706298828125	-183.8161315917969	280.6580505371094	-1066.070922851563	-228.4050750732422	225.3364410400391	-1119.986450195313	-203.493392944336	227.4993743896485	-1080.062744140625	-262.9269104003907	186.5794830322266	-1037.50439453125	-374.5472412109376	104.5902709960938	-1076.780151367188	-346.5594482421876	122.4697341918946	-995.567810058594	-440.7981262207032	96.97805023193362	-1025.416015625	-239.2336730957032	51.77045822143556	-1004.452514648438	-233.4834289550782	48.1420249938965	-1043.4111328125	-257.8117980957032	42.66547393798829	-1093.15673828125	-274.8115844726563	543.9859619140626	-867.1378173828127	-209.0330352783204	554.0320434570314	-874.1535644531252	-197.6778411865235	586.0605468750001	-883.680114746094	-152.0497131347657	496.9923095703126	-895.8999633789065	-101.8871154785157	470.6568603515626	-903.9226684570315	-89.2767791748047	494.1876831054689	-1018.777954101563	36.15361785888673	444.4116516113282	-927.6923828125002	74.51329803466798	344.4089965820313	-904.8984375000002	97.87834930419925	383.6988830566407	-915.9672851562502	143.9561157226563	375.5022277832032	-950.3558349609377	242.5279998779297	252.0415802001954	-924.254821777344	235.8718566894532	282.0029296875001	-1003.769653320313	244.0868835449219	190.8771667480469	-967.3297119140627	347.3706970214844	368.3134765625001	-992.4003906250002	340.4829406738282	378.0522460937501	-946.2895507812502	344.9898071289063	347.3798217773438	-891.9639892578127	-370.6999511718751	722.2761230468751	-1142.245239257813	
1016	5.075	-245.9269256591797	1388.767456054688	-1024.857177734375	-380.2475585937501	1311.35009765625	-1122.6787109375	-367.5525512695313	1314.912963867188	-970.9940185546877	-419.3412170410157	1196.211059570313	-1038.589965820313	-501.815643310547	897.9453125000002	-1030.122314453125	-296.2396850585938	1114.373291015625	-1049.26416015625	-352.3547973632813	1148.336181640625	-1205.1025390625	-210.9454498291016	1113.562744140625	-1287.02587890625	-177.0841674804688	1131.197265625	-1254.608154296875	-145.0369262695313	1112.74951171875	-1303.040893554688	-94.13442230224611	1097.923461914063	-1317.070190429688	-80.71042633056642	1035.4111328125	-1269.1982421875	152.8285369873047	1139.580078125	-1274.680297851563	147.1206359863282	1143.124755859375	-1339.196411132813	232.1525573730469	1164.519409179688	-1276.215576171875	-328.7411804199219	1146.2734375	-892.6431274414065	-190.5240631103516	1100.406982421875	-806.211853027344	-163.10498046875	1133.883056640625	-828.7897949218752	-120.4664916992188	1098.2978515625	-803.0123291015627	-53.72505950927736	1106.2978515625	-808.1069335937502	-47.74265289306641	1057.355346679688	-866.230163574219	187.4235382080078	1138.405395507813	-860.864929199219	179.3177642822266	1135.500854492188	-796.0325317382815	261.4189758300782	1161.109741210938	-849.337097167969	-361.5499877929688	722.5366821289064	-929.3791503906252	-530.3905029296876	784.0585937500002	-1025.894653320313	-539.4443969726564	756.2268676757814	-1056.028564453125	-539.4061889648439	751.4618530273439	-999.4488525390627	-368.1922302246094	591.5063476562501	-1215.437622070313	-288.8647766113282	562.8916625976564	-1214.031494140625	-257.0642395019532	596.7833251953126	-1195.013427734375	-268.4757080078126	505.3842773437501	-1204.944458007813	-158.3519287109375	397.5173339843751	-1172.047973632813	-145.2687225341797	414.850311279297	-1056.741821289063	-183.7179565429688	281.3102416992188	-1065.935546875	-228.5948028564454	225.5196380615235	-1120.03173828125	-203.6518859863282	227.7300720214844	-1080.173095703125	-263.0214843750001	186.6381378173828	-1037.46240234375	-374.5834350585938	104.557243347168	-1076.793701171875	-346.5882873535157	122.4660720825196	-995.5939941406252	-440.6571350097657	96.85366058349612	-1025.314331054688	-239.2285919189454	51.81289291381837	-1004.455383300781	-233.4859924316407	48.16407394409181	-1043.405639648438	-257.7994995117188	42.6517448425293	-1093.174438476563	-274.5960998535157	544.9354858398439	-867.0610351562502	-208.8060150146485	555.0940551757814	-874.0229492187502	-197.4958801269532	586.9993896484376	-883.5776977539065	-151.859848022461	497.9659118652345	-895.722106933594	-101.7857894897461	471.5729064941407	-903.840270996094	-89.38545227050783	495.4166870117189	-1018.709045410156	36.2569808959961	445.541473388672	-927.7642822265627	74.62033843994142	345.3416748046876	-904.818542480469	97.99518585205081	384.6746520996095	-916.0125122070315	144.004623413086	376.5429382324219	-950.4443359375002	242.7026824951172	253.1503906250001	-924.2253417968752	235.236068725586	283.1358032226563	-1003.700073242188	244.2303314208985	191.9243927001953	-967.2012939453127	345.4927673339844	368.7720947265626	-989.8787231445315	340.1006774902344	378.8081665039063	-946.0003051757815	345.1972961425782	348.2963256835938	-892.0488891601565	-370.5458679199219	723.1799926757814	-1142.06103515625	
1017	5.08	-246.2248840332032	1389.841552734375	-1024.806030273438	-380.7945251464844	1311.150268554688	-1122.557861328125	-367.8021545410157	1315.750854492188	-970.830749511719	-419.5682373046876	1197.21875	-1038.4970703125	-501.8836364746095	898.8318481445315	-1030.047729492188	-296.3163757324219	1115.245239257813	-1049.173950195313	-353.7269287109376	1149.54541015625	-1205.0458984375	-211.1577911376954	1114.500854492188	-1286.962646484375	-177.1088104248047	1132.125244140625	-1254.479736328125	-145.2589569091797	1113.773803710938	-1303.145385742188	-94.3002166748047	1099.103149414063	-1317.21728515625	-80.99127197265626	1036.546264648438	-1269.15380859375	152.4539794921875	1140.57275390625	-1274.759033203125	147.2275085449219	1143.917846679688	-1339.271118164063	231.9270324707032	1165.453002929688	-1276.116088867188	-328.9838562011719	1147.34033203125	-892.6217041015627	-190.683349609375	1101.510864257813	-806.105407714844	-163.3477783203125	1134.938110351563	-828.6759033203127	-120.6406936645508	1099.340087890625	-802.9526367187502	-54.01647567749025	1107.322509765625	-808.053894042969	-47.96222686767579	1058.505004882813	-866.3782348632815	187.1515045166016	1139.817260742188	-860.973327636719	179.0391540527344	1136.65185546875	-796.0620117187502	261.2131347656251	1162.466674804688	-849.2051391601565	-361.4099426269532	723.3462524414064	-929.401062011719	-530.1417846679689	785.0676879882815	-1025.924194335938	-539.2810058593751	757.0717773437501	-1056.008178710938	-539.4405517578126	752.3118896484376	-999.3220825195315	-367.9677734375001	592.0491943359376	-1215.30615234375	-288.9882507324219	563.4003906250001	-1213.923950195313	-257.0875549316407	597.2103271484376	-1194.85498046875	-268.6460876464844	505.9689941406251	-1204.664916992188	-158.5141754150391	397.9147033691407	-1172.048828125	-145.4789581298828	415.1796264648439	-1056.62890625	-183.9163360595703	281.5195007324219	-1065.849365234375	-228.7249755859376	225.7871246337891	-1119.997924804688	-203.8147735595704	227.9969329833985	-1080.1513671875	-263.2081298828126	186.7152404785157	-1037.422607421875	-374.5437622070313	104.4830932617188	-1076.752563476563	-346.5924377441407	122.4450988769532	-995.594177246094	-440.6438293457032	96.8647384643555	-1025.314819335938	-239.2298126220704	51.81901931762697	-1004.451538085938	-233.5256652832032	48.16720581054689	-1043.4267578125	-257.7787780761719	42.6668815612793	-1093.15771484375	-274.5375976562501	545.9502563476564	-866.9892578125002	-208.6555633544922	555.9966430664064	-873.9490966796877	-197.3105010986329	587.8796997070314	-883.520690917969	-151.7440032958985	498.7127685546876	-895.700622558594	-101.5565338134766	472.6676635742189	-903.8313598632815	-89.0730438232422	496.1106872558595	-1018.649597167969	36.40156936645509	446.4758300781251	-927.613220214844	74.71785736083986	346.3483886718751	-904.8387451171877	98.17981719970706	385.6587829589845	-916.020446777344	144.263671875	377.6037597656251	-950.4331054687502	242.8088684082032	254.1600494384766	-924.2593994140627	235.6416931152344	284.2349243164063	-1004.050109863281	244.4037170410157	192.922592163086	-967.277770996094	346.3993530273438	370.2453613281251	-990.912536621094	339.8360900878907	378.9849243164063	-945.8159790039065	345.4158935546876	349.3434753417969	-892.0705566406252	-370.3526306152344	724.0683593750001	-1142.1552734375	
